<svg xmlns="http://www.w3.org/2000/svg" xmlns:xlink="http://www.w3.org/1999/xlink" width="500" zoomAndPan="magnify" viewBox="0 0 375 374.999991" height="500" preserveAspectRatio="xMidYMid meet" version="1.0"><defs><clipPath id="531d70ea28"><path d="M 187.5 0 C 83.945312 0 0 83.945312 0 187.5 C 0 291.054688 83.945312 375 187.5 375 C 291.054688 375 375 291.054688 375 187.5 C 375 83.945312 291.054688 0 187.5 0 " clip-rule="nonzero"/></clipPath><clipPath id="8e79c15017"><path d="M 291 104 L 315.566406 104 L 315.566406 128 L 291 128 Z M 291 104 " clip-rule="nonzero"/></clipPath><clipPath id="9d3c215abe"><path d="M 60 102 L 274 102 L 274 315.285156 L 60 315.285156 Z M 60 102 " clip-rule="nonzero"/></clipPath></defs><g clip-path="url(#531d70ea28)"><rect x="-37.5" width="450" fill="#ffdcb9" y="-37.499999" height="449.999989" fill-opacity="1"/></g><path fill="#f5b97d" d="M 305.148438 203.292969 C 303.292969 203.5625 301.398438 203.707031 299.464844 203.707031 C 281.6875 203.707031 266.644531 192.070312 261.484375 175.996094 C 260.601562 173.25 258.359375 171.132812 255.527344 170.59375 C 226.003906 164.96875 203.679688 139.03125 203.679688 107.851562 C 203.679688 94.757812 207.628906 82.59375 214.386719 72.460938 C 215.992188 70.050781 214.652344 66.84375 211.8125 66.28125 C 204.019531 64.734375 195.964844 63.917969 187.714844 63.917969 C 119.382812 63.917969 63.992188 119.351562 63.992188 187.730469 C 63.992188 256.113281 119.382812 311.546875 187.714844 311.546875 C 249.296875 311.546875 300.21875 266.6875 309.796875 207.75 C 310.234375 205.078125 307.824219 202.898438 305.148438 203.292969 Z M 305.148438 203.292969 " fill-opacity="1" fill-rule="nonzero"/><path fill="#cd916e" d="M 147.804688 147.792969 C 147.804688 148.316406 147.777344 148.835938 147.726562 149.359375 C 147.675781 149.878906 147.597656 150.394531 147.496094 150.910156 C 147.394531 151.421875 147.269531 151.929688 147.117188 152.429688 C 146.964844 152.929688 146.789062 153.421875 146.589844 153.90625 C 146.390625 154.390625 146.164062 154.863281 145.917969 155.324219 C 145.671875 155.785156 145.402344 156.230469 145.113281 156.667969 C 144.824219 157.101562 144.511719 157.523438 144.179688 157.925781 C 143.847656 158.332031 143.5 158.71875 143.128906 159.089844 C 142.757812 159.457031 142.371094 159.808594 141.96875 160.140625 C 141.5625 160.472656 141.144531 160.785156 140.710938 161.074219 C 140.273438 161.363281 139.828125 161.632812 139.367188 161.878906 C 138.90625 162.128906 138.433594 162.351562 137.949219 162.550781 C 137.46875 162.75 136.976562 162.925781 136.476562 163.078125 C 135.976562 163.230469 135.46875 163.359375 134.957031 163.460938 C 134.441406 163.5625 133.925781 163.636719 133.40625 163.691406 C 132.886719 163.742188 132.363281 163.765625 131.839844 163.765625 C 131.320312 163.765625 130.796875 163.742188 130.277344 163.691406 C 129.757812 163.636719 129.242188 163.5625 128.726562 163.460938 C 128.214844 163.359375 127.707031 163.230469 127.207031 163.078125 C 126.707031 162.925781 126.214844 162.75 125.734375 162.550781 C 125.25 162.351562 124.777344 162.128906 124.316406 161.878906 C 123.855469 161.632812 123.410156 161.363281 122.972656 161.074219 C 122.539062 160.785156 122.121094 160.472656 121.714844 160.140625 C 121.3125 159.808594 120.925781 159.457031 120.554688 159.089844 C 120.183594 158.71875 119.835938 158.332031 119.503906 157.925781 C 119.171875 157.523438 118.859375 157.101562 118.570312 156.667969 C 118.277344 156.230469 118.011719 155.785156 117.765625 155.324219 C 117.519531 154.863281 117.292969 154.390625 117.09375 153.90625 C 116.894531 153.421875 116.71875 152.929688 116.566406 152.429688 C 116.414062 151.929688 116.289062 151.421875 116.1875 150.910156 C 116.085938 150.394531 116.007812 149.878906 115.957031 149.359375 C 115.90625 148.835938 115.878906 148.316406 115.878906 147.792969 C 115.878906 147.269531 115.90625 146.746094 115.957031 146.226562 C 116.007812 145.707031 116.085938 145.191406 116.1875 144.675781 C 116.289062 144.164062 116.414062 143.65625 116.566406 143.15625 C 116.71875 142.65625 116.894531 142.164062 117.09375 141.679688 C 117.292969 141.195312 117.519531 140.722656 117.765625 140.261719 C 118.011719 139.800781 118.277344 139.351562 118.570312 138.917969 C 118.859375 138.484375 119.171875 138.0625 119.503906 137.660156 C 119.835938 137.253906 120.183594 136.867188 120.554688 136.496094 C 120.925781 136.128906 121.3125 135.777344 121.714844 135.445312 C 122.121094 135.113281 122.539062 134.800781 122.972656 134.511719 C 123.410156 134.21875 123.855469 133.953125 124.316406 133.707031 C 124.777344 133.457031 125.25 133.234375 125.734375 133.035156 C 126.214844 132.835938 126.707031 132.660156 127.207031 132.507812 C 127.707031 132.355469 128.214844 132.226562 128.726562 132.125 C 129.242188 132.023438 129.757812 131.945312 130.277344 131.894531 C 130.796875 131.84375 131.320312 131.820312 131.839844 131.820312 C 132.363281 131.820312 132.886719 131.84375 133.40625 131.894531 C 133.925781 131.945312 134.441406 132.023438 134.957031 132.125 C 135.46875 132.226562 135.976562 132.355469 136.476562 132.507812 C 136.976562 132.660156 137.46875 132.835938 137.949219 133.035156 C 138.433594 133.234375 138.90625 133.457031 139.367188 133.707031 C 139.828125 133.953125 140.273438 134.21875 140.710938 134.511719 C 141.144531 134.800781 141.5625 135.113281 141.96875 135.445312 C 142.371094 135.777344 142.757812 136.128906 143.128906 136.496094 C 143.5 136.867188 143.847656 137.253906 144.179688 137.660156 C 144.511719 138.0625 144.824219 138.484375 145.113281 138.917969 C 145.402344 139.351562 145.671875 139.800781 145.917969 140.261719 C 146.164062 140.722656 146.390625 141.195312 146.589844 141.679688 C 146.789062 142.164062 146.964844 142.65625 147.117188 143.15625 C 147.269531 143.65625 147.394531 144.164062 147.496094 144.675781 C 147.597656 145.191406 147.675781 145.707031 147.726562 146.226562 C 147.777344 146.746094 147.804688 147.269531 147.804688 147.792969 Z M 147.804688 147.792969 " fill-opacity="1" fill-rule="nonzero"/><path fill="#cd916e" d="M 151.796875 227.671875 C 151.796875 228.457031 151.71875 229.238281 151.566406 230.007812 C 151.414062 230.78125 151.1875 231.53125 150.886719 232.257812 C 150.582031 232.984375 150.214844 233.675781 149.777344 234.328125 C 149.339844 234.984375 148.84375 235.589844 148.289062 236.144531 C 147.734375 236.699219 147.128906 237.199219 146.476562 237.632812 C 145.820312 238.070312 145.132812 238.441406 144.40625 238.742188 C 143.679688 239.042969 142.929688 239.269531 142.160156 239.421875 C 141.386719 239.578125 140.609375 239.652344 139.820312 239.652344 C 139.035156 239.652344 138.257812 239.578125 137.484375 239.421875 C 136.714844 239.269531 135.964844 239.042969 135.238281 238.742188 C 134.511719 238.441406 133.824219 238.070312 133.167969 237.632812 C 132.515625 237.199219 131.910156 236.699219 131.355469 236.144531 C 130.800781 235.589844 130.304688 234.984375 129.867188 234.328125 C 129.429688 233.675781 129.058594 232.984375 128.757812 232.257812 C 128.457031 231.53125 128.230469 230.78125 128.078125 230.007812 C 127.925781 229.238281 127.847656 228.457031 127.847656 227.671875 C 127.847656 226.882812 127.925781 226.105469 128.078125 225.332031 C 128.230469 224.5625 128.457031 223.8125 128.757812 223.085938 C 129.058594 222.359375 129.429688 221.667969 129.867188 221.015625 C 130.304688 220.359375 130.800781 219.753906 131.355469 219.199219 C 131.910156 218.640625 132.515625 218.144531 133.167969 217.707031 C 133.824219 217.269531 134.511719 216.902344 135.238281 216.601562 C 135.964844 216.300781 136.714844 216.070312 137.484375 215.917969 C 138.257812 215.765625 139.035156 215.6875 139.820312 215.6875 C 140.609375 215.6875 141.386719 215.765625 142.160156 215.917969 C 142.929688 216.070312 143.679688 216.300781 144.40625 216.601562 C 145.132812 216.902344 145.820312 217.269531 146.476562 217.707031 C 147.128906 218.144531 147.734375 218.640625 148.289062 219.199219 C 148.84375 219.753906 149.339844 220.359375 149.777344 221.015625 C 150.214844 221.667969 150.582031 222.359375 150.886719 223.085938 C 151.1875 223.8125 151.414062 224.5625 151.566406 225.332031 C 151.71875 226.105469 151.796875 226.882812 151.796875 227.671875 Z M 151.796875 227.671875 " fill-opacity="1" fill-rule="nonzero"/><path fill="#f5b97d" d="M 239.109375 96.292969 L 237.964844 103.167969 C 237.023438 108.816406 240.210938 114.34375 245.570312 116.355469 L 255.707031 120.160156 C 262.402344 122.671875 269.792969 118.789062 271.527344 111.847656 L 275.140625 97.382812 C 277.394531 88.367188 268.980469 80.328125 260.085938 83 L 247.480469 86.785156 C 243.105469 88.097656 239.859375 91.785156 239.109375 96.292969 Z M 239.109375 96.292969 " fill-opacity="1" fill-rule="nonzero"/><path fill="#f5b97d" d="M 279.511719 139.804688 L 274.691406 142.21875 C 270.910156 144.109375 269.257812 148.621094 270.921875 152.507812 L 274.800781 161.5625 C 277.148438 167.046875 284.453125 168.113281 288.269531 163.53125 L 294.507812 156.039062 C 297.433594 152.527344 296.820312 147.277344 293.164062 144.535156 L 287.871094 140.558594 C 285.449219 138.742188 282.214844 138.453125 279.511719 139.804688 Z M 279.511719 139.804688 " fill-opacity="1" fill-rule="nonzero"/><path fill="#f5b97d" d="M 311.4375 115.839844 C 311.4375 116.363281 311.386719 116.882812 311.285156 117.398438 C 311.179688 117.914062 311.03125 118.414062 310.828125 118.898438 C 310.628906 119.382812 310.382812 119.839844 310.089844 120.277344 C 309.800781 120.714844 309.46875 121.117188 309.097656 121.488281 C 308.730469 121.859375 308.324219 122.191406 307.890625 122.480469 C 307.453125 122.773438 306.992188 123.019531 306.511719 123.21875 C 306.027344 123.417969 305.527344 123.570312 305.011719 123.671875 C 304.5 123.777344 303.980469 123.828125 303.457031 123.828125 C 302.933594 123.828125 302.414062 123.777344 301.898438 123.671875 C 301.382812 123.570312 300.886719 123.417969 300.402344 123.21875 C 299.917969 123.019531 299.457031 122.773438 299.023438 122.480469 C 298.585938 122.191406 298.183594 121.859375 297.8125 121.488281 C 297.441406 121.117188 297.109375 120.714844 296.820312 120.277344 C 296.527344 119.839844 296.28125 119.382812 296.082031 118.898438 C 295.882812 118.414062 295.730469 117.914062 295.628906 117.398438 C 295.527344 116.882812 295.476562 116.363281 295.476562 115.839844 C 295.476562 115.316406 295.527344 114.796875 295.628906 114.28125 C 295.730469 113.769531 295.882812 113.269531 296.082031 112.785156 C 296.28125 112.300781 296.527344 111.839844 296.820312 111.402344 C 297.109375 110.96875 297.441406 110.5625 297.8125 110.191406 C 298.183594 109.820312 298.585938 109.492188 299.023438 109.199219 C 299.457031 108.90625 299.917969 108.660156 300.402344 108.460938 C 300.886719 108.261719 301.382812 108.109375 301.898438 108.007812 C 302.414062 107.90625 302.933594 107.851562 303.457031 107.851562 C 303.980469 107.851562 304.5 107.90625 305.011719 108.007812 C 305.527344 108.109375 306.027344 108.261719 306.511719 108.460938 C 306.992188 108.660156 307.453125 108.90625 307.890625 109.199219 C 308.324219 109.492188 308.730469 109.820312 309.097656 110.191406 C 309.46875 110.5625 309.800781 110.96875 310.089844 111.402344 C 310.382812 111.839844 310.628906 112.300781 310.828125 112.785156 C 311.03125 113.269531 311.179688 113.769531 311.285156 114.28125 C 311.386719 114.796875 311.4375 115.316406 311.4375 115.839844 Z M 311.4375 115.839844 " fill-opacity="1" fill-rule="nonzero"/><path fill="#e3aa75" d="M 202.683594 296.566406 C 134.351562 296.566406 78.957031 241.136719 78.957031 172.753906 C 78.957031 142.378906 89.90625 114.570312 108.050781 93.03125 C 81.117188 115.742188 63.992188 149.730469 63.992188 187.730469 C 63.992188 256.113281 119.386719 311.546875 187.714844 311.546875 C 225.714844 311.546875 259.640625 294.449219 282.3125 267.523438 C 260.808594 285.644531 233.046875 296.566406 202.683594 296.566406 Z M 202.683594 296.566406 " fill-opacity="1" fill-rule="nonzero"/><path fill="#e3aa75" d="M 257.484375 110.890625 C 250.789062 108.378906 246.808594 101.476562 247.984375 94.417969 L 249.347656 86.222656 L 247.480469 86.785156 C 243.105469 88.097656 239.859375 91.785156 239.109375 96.292969 L 237.964844 103.167969 C 237.023438 108.816406 240.210938 114.34375 245.570312 116.355469 L 255.707031 120.160156 C 261.085938 122.179688 266.855469 120.03125 269.839844 115.527344 Z M 257.484375 110.890625 " fill-opacity="1" fill-rule="nonzero"/><path fill="#e3aa75" d="M 283.316406 156.414062 L 278.925781 146.160156 C 278.101562 144.234375 278.03125 142.183594 278.53125 140.292969 L 274.691406 142.214844 C 270.910156 144.105469 269.257812 148.621094 270.921875 152.507812 L 274.800781 161.5625 C 277.148438 167.042969 284.453125 168.109375 288.269531 163.527344 L 289.820312 161.667969 C 287.078125 161.109375 284.570312 159.339844 283.316406 156.414062 Z M 283.316406 156.414062 " fill-opacity="1" fill-rule="nonzero"/><path fill="#b67f5f" d="M 140.320312 155.28125 C 131.503906 155.28125 124.359375 148.128906 124.359375 139.304688 C 124.359375 137.097656 124.804688 134.992188 125.617188 133.078125 C 119.890625 135.503906 115.875 141.179688 115.875 147.792969 C 115.875 156.617188 123.023438 163.769531 131.839844 163.769531 C 138.449219 163.769531 144.121094 159.75 146.546875 154.019531 C 144.632812 154.832031 142.527344 155.28125 140.320312 155.28125 Z M 140.320312 155.28125 " fill-opacity="1" fill-rule="nonzero"/><path fill="#b67f5f" d="M 146.058594 233.414062 C 139.445312 233.414062 134.085938 228.050781 134.085938 221.433594 C 134.085938 219.742188 134.445312 218.140625 135.074219 216.679688 C 130.828125 218.519531 127.847656 222.746094 127.847656 227.671875 C 127.847656 234.289062 133.210938 239.65625 139.824219 239.65625 C 144.746094 239.65625 148.96875 236.675781 150.808594 232.425781 C 149.351562 233.054688 147.746094 233.414062 146.058594 233.414062 Z M 146.058594 233.414062 " fill-opacity="1" fill-rule="nonzero"/><path fill="#cd916e" d="M 231.617188 239.652344 C 231.617188 240.175781 231.589844 240.699219 231.539062 241.21875 C 231.488281 241.738281 231.410156 242.257812 231.308594 242.769531 C 231.207031 243.28125 231.082031 243.789062 230.929688 244.289062 C 230.777344 244.792969 230.601562 245.28125 230.402344 245.765625 C 230.203125 246.25 229.976562 246.722656 229.730469 247.183594 C 229.484375 247.644531 229.21875 248.09375 228.925781 248.527344 C 228.636719 248.964844 228.324219 249.382812 227.992188 249.789062 C 227.660156 250.191406 227.3125 250.578125 226.941406 250.949219 C 226.570312 251.320312 226.183594 251.667969 225.78125 252 C 225.375 252.332031 224.957031 252.644531 224.523438 252.933594 C 224.085938 253.226562 223.640625 253.496094 223.179688 253.742188 C 222.71875 253.988281 222.246094 254.210938 221.761719 254.410156 C 221.28125 254.613281 220.789062 254.789062 220.289062 254.941406 C 219.789062 255.089844 219.28125 255.21875 218.769531 255.320312 C 218.253906 255.421875 217.738281 255.5 217.21875 255.550781 C 216.699219 255.601562 216.175781 255.628906 215.65625 255.628906 C 215.132812 255.628906 214.609375 255.601562 214.089844 255.550781 C 213.570312 255.5 213.054688 255.421875 212.539062 255.320312 C 212.027344 255.21875 211.519531 255.089844 211.019531 254.941406 C 210.519531 254.789062 210.027344 254.613281 209.546875 254.410156 C 209.0625 254.210938 208.589844 253.988281 208.128906 253.742188 C 207.667969 253.496094 207.222656 253.226562 206.785156 252.933594 C 206.351562 252.644531 205.933594 252.332031 205.527344 252 C 205.125 251.667969 204.738281 251.320312 204.367188 250.949219 C 203.996094 250.578125 203.648438 250.191406 203.316406 249.789062 C 202.984375 249.382812 202.671875 248.964844 202.382812 248.527344 C 202.09375 248.09375 201.824219 247.644531 201.578125 247.183594 C 201.332031 246.722656 201.105469 246.25 200.90625 245.765625 C 200.707031 245.28125 200.53125 244.792969 200.378906 244.289062 C 200.226562 243.789062 200.101562 243.28125 200 242.769531 C 199.898438 242.257812 199.820312 241.738281 199.769531 241.21875 C 199.71875 240.699219 199.691406 240.175781 199.691406 239.652344 C 199.691406 239.128906 199.71875 238.609375 199.769531 238.085938 C 199.820312 237.566406 199.898438 237.050781 200 236.539062 C 200.101562 236.023438 200.226562 235.515625 200.378906 235.015625 C 200.53125 234.515625 200.707031 234.023438 200.90625 233.539062 C 201.105469 233.058594 201.332031 232.585938 201.578125 232.125 C 201.824219 231.664062 202.09375 231.214844 202.382812 230.777344 C 202.671875 230.34375 202.984375 229.925781 203.316406 229.519531 C 203.648438 229.117188 203.996094 228.726562 204.367188 228.359375 C 204.738281 227.988281 205.125 227.636719 205.527344 227.304688 C 205.933594 226.972656 206.351562 226.664062 206.785156 226.371094 C 207.222656 226.082031 207.667969 225.8125 208.128906 225.566406 C 208.589844 225.320312 209.0625 225.097656 209.546875 224.894531 C 210.027344 224.695312 210.519531 224.519531 211.019531 224.367188 C 211.519531 224.214844 212.027344 224.089844 212.539062 223.988281 C 213.054688 223.882812 213.570312 223.808594 214.089844 223.757812 C 214.609375 223.707031 215.132812 223.679688 215.65625 223.679688 C 216.175781 223.679688 216.699219 223.707031 217.21875 223.757812 C 217.738281 223.808594 218.253906 223.882812 218.769531 223.988281 C 219.28125 224.089844 219.789062 224.214844 220.289062 224.367188 C 220.789062 224.519531 221.28125 224.695312 221.761719 224.894531 C 222.246094 225.097656 222.71875 225.320312 223.179688 225.566406 C 223.640625 225.8125 224.085938 226.082031 224.523438 226.371094 C 224.957031 226.664062 225.375 226.972656 225.78125 227.304688 C 226.183594 227.636719 226.570312 227.988281 226.941406 228.359375 C 227.3125 228.726562 227.660156 229.117188 227.992188 229.519531 C 228.324219 229.925781 228.636719 230.34375 228.925781 230.777344 C 229.21875 231.214844 229.484375 231.664062 229.730469 232.125 C 229.976562 232.585938 230.203125 233.058594 230.402344 233.539062 C 230.601562 234.023438 230.777344 234.515625 230.929688 235.015625 C 231.082031 235.515625 231.207031 236.023438 231.308594 236.539062 C 231.410156 237.050781 231.488281 237.566406 231.539062 238.085938 C 231.589844 238.609375 231.617188 239.128906 231.617188 239.652344 Z M 231.617188 239.652344 " fill-opacity="1" fill-rule="nonzero"/><path fill="#b67f5f" d="M 224.132812 247.144531 C 215.316406 247.144531 208.167969 239.988281 208.167969 231.167969 C 208.167969 228.957031 208.617188 226.851562 209.429688 224.9375 C 203.703125 227.367188 199.6875 233.039062 199.6875 239.652344 C 199.6875 248.476562 206.835938 255.628906 215.652344 255.628906 C 222.261719 255.628906 227.933594 251.609375 230.355469 245.882812 C 228.445312 246.691406 226.34375 247.144531 224.132812 247.144531 Z M 224.132812 247.144531 " fill-opacity="1" fill-rule="nonzero"/><path fill="#cd916e" d="M 191.539062 167.761719 C 191.539062 168.285156 191.484375 168.804688 191.382812 169.320312 C 191.28125 169.835938 191.128906 170.335938 190.929688 170.820312 C 190.730469 171.304688 190.484375 171.765625 190.191406 172.199219 C 189.902344 172.636719 189.570312 173.039062 189.199219 173.410156 C 188.828125 173.78125 188.425781 174.113281 187.992188 174.402344 C 187.554688 174.695312 187.09375 174.941406 186.609375 175.140625 C 186.125 175.34375 185.628906 175.492188 185.113281 175.597656 C 184.597656 175.699219 184.082031 175.75 183.554688 175.75 C 183.03125 175.75 182.511719 175.699219 182 175.597656 C 181.484375 175.492188 180.984375 175.34375 180.503906 175.140625 C 180.019531 174.941406 179.558594 174.695312 179.121094 174.402344 C 178.6875 174.113281 178.285156 173.78125 177.914062 173.410156 C 177.542969 173.039062 177.210938 172.636719 176.921875 172.199219 C 176.628906 171.765625 176.382812 171.304688 176.183594 170.820312 C 175.980469 170.335938 175.832031 169.835938 175.730469 169.320312 C 175.625 168.804688 175.574219 168.285156 175.574219 167.761719 C 175.574219 167.238281 175.625 166.71875 175.730469 166.203125 C 175.832031 165.691406 175.980469 165.191406 176.183594 164.707031 C 176.382812 164.222656 176.628906 163.761719 176.921875 163.324219 C 177.210938 162.890625 177.542969 162.484375 177.914062 162.113281 C 178.285156 161.742188 178.6875 161.414062 179.121094 161.121094 C 179.558594 160.832031 180.019531 160.585938 180.503906 160.382812 C 180.984375 160.183594 181.484375 160.03125 182 159.929688 C 182.511719 159.828125 183.03125 159.777344 183.554688 159.777344 C 184.082031 159.777344 184.597656 159.828125 185.113281 159.929688 C 185.628906 160.03125 186.125 160.183594 186.609375 160.382812 C 187.09375 160.585938 187.554688 160.832031 187.992188 161.121094 C 188.425781 161.414062 188.828125 161.742188 189.199219 162.113281 C 189.570312 162.484375 189.902344 162.890625 190.191406 163.324219 C 190.484375 163.761719 190.730469 164.222656 190.929688 164.707031 C 191.128906 165.191406 191.28125 165.691406 191.382812 166.203125 C 191.484375 166.71875 191.539062 167.238281 191.539062 167.761719 Z M 191.539062 167.761719 " fill-opacity="1" fill-rule="nonzero"/><path fill="#000000" d="M 131.839844 128.078125 C 120.980469 128.078125 112.140625 136.921875 112.140625 147.792969 C 112.140625 158.660156 120.980469 167.503906 131.839844 167.503906 C 142.703125 167.503906 151.539062 158.660156 151.539062 147.792969 C 151.539062 136.921875 142.703125 128.078125 131.839844 128.078125 Z M 131.839844 160.03125 C 125.097656 160.03125 119.609375 154.542969 119.609375 147.792969 C 119.609375 141.042969 125.097656 135.554688 131.839844 135.554688 C 138.582031 135.554688 144.070312 141.042969 144.070312 147.792969 C 144.070312 154.542969 138.582031 160.03125 131.839844 160.03125 Z M 131.839844 160.03125 " fill-opacity="1" fill-rule="nonzero"/><path fill="#000000" d="M 195.953125 239.65625 C 195.953125 250.523438 204.792969 259.367188 215.652344 259.367188 C 226.515625 259.367188 235.351562 250.523438 235.351562 239.65625 C 235.351562 228.785156 226.515625 219.941406 215.652344 219.941406 C 204.792969 219.941406 195.953125 228.785156 195.953125 239.65625 Z M 215.652344 227.414062 C 222.398438 227.414062 227.882812 232.90625 227.882812 239.652344 C 227.882812 246.402344 222.394531 251.894531 215.652344 251.894531 C 208.910156 251.894531 203.421875 246.402344 203.421875 239.652344 C 203.421875 232.90625 208.910156 227.414062 215.652344 227.414062 Z M 215.652344 227.414062 " fill-opacity="1" fill-rule="nonzero"/><path fill="#000000" d="M 139.820312 211.953125 C 131.160156 211.953125 124.113281 219.003906 124.113281 227.671875 C 124.113281 236.339844 131.160156 243.390625 139.820312 243.390625 C 148.484375 243.390625 155.53125 236.339844 155.53125 227.671875 C 155.53125 219.003906 148.484375 211.953125 139.820312 211.953125 Z M 139.820312 235.917969 C 135.277344 235.917969 131.582031 232.21875 131.582031 227.671875 C 131.582031 223.125 135.277344 219.425781 139.820312 219.425781 C 144.367188 219.425781 148.0625 223.125 148.0625 227.671875 C 148.0625 232.21875 144.367188 235.917969 139.820312 235.917969 Z M 139.820312 235.917969 " fill-opacity="1" fill-rule="nonzero"/><path fill="#000000" d="M 172.007812 167.761719 C 172.007812 174.226562 177.265625 179.488281 183.722656 179.488281 C 190.183594 179.488281 195.441406 174.226562 195.441406 167.761719 C 195.441406 161.296875 190.183594 156.039062 183.726562 156.039062 C 177.265625 156.039062 172.007812 161.296875 172.007812 167.761719 Z M 183.722656 163.511719 C 186.066406 163.511719 187.972656 165.417969 187.972656 167.761719 C 187.972656 170.105469 186.066406 172.011719 183.726562 172.011719 C 181.382812 172.011719 179.476562 170.105469 179.476562 167.761719 C 179.476562 165.417969 181.382812 163.511719 183.722656 163.511719 Z M 183.722656 163.511719 " fill-opacity="1" fill-rule="nonzero"/><path fill="#000000" d="M 259.558594 227.417969 C 260.117188 227.417969 260.6875 227.289062 261.226562 227.019531 C 263.070312 226.097656 263.816406 223.855469 262.894531 222.007812 L 258.902344 214.019531 C 257.980469 212.171875 255.738281 211.425781 253.894531 212.347656 C 252.050781 213.269531 251.300781 215.515625 252.222656 217.359375 L 256.214844 225.347656 C 256.871094 226.660156 258.1875 227.417969 259.558594 227.417969 Z M 259.558594 227.417969 " fill-opacity="1" fill-rule="nonzero"/><path fill="#000000" d="M 215.65625 203.453125 C 216.21875 203.453125 216.785156 203.324219 217.324219 203.058594 L 225.304688 199.0625 C 227.148438 198.140625 227.898438 195.894531 226.976562 194.050781 C 226.050781 192.203125 223.808594 191.453125 221.964844 192.378906 L 213.984375 196.371094 C 212.136719 197.296875 211.390625 199.539062 212.3125 201.386719 C 212.96875 202.695312 214.285156 203.453125 215.65625 203.453125 Z M 215.65625 203.453125 " fill-opacity="1" fill-rule="nonzero"/><path fill="#000000" d="M 104.554688 193.398438 C 105.207031 194.707031 106.527344 195.464844 107.898438 195.464844 C 108.457031 195.464844 109.027344 195.335938 109.5625 195.070312 C 111.410156 194.144531 112.15625 191.902344 111.234375 190.054688 L 107.242188 182.066406 C 106.320312 180.222656 104.078125 179.472656 102.234375 180.394531 C 100.386719 181.320312 99.640625 183.5625 100.5625 185.410156 Z M 104.554688 193.398438 " fill-opacity="1" fill-rule="nonzero"/><path fill="#000000" d="M 166.089844 256.28125 L 158.109375 260.277344 C 156.265625 261.199219 155.515625 263.441406 156.4375 265.289062 C 157.09375 266.597656 158.410156 267.355469 159.78125 267.355469 C 160.34375 267.355469 160.910156 267.226562 161.449219 266.960938 L 169.429688 262.964844 C 171.273438 262.042969 172.023438 259.796875 171.101562 257.953125 C 170.179688 256.105469 167.933594 255.359375 166.089844 256.28125 Z M 166.089844 256.28125 " fill-opacity="1" fill-rule="nonzero"/><path fill="#000000" d="M 170.402344 105.210938 L 166.410156 101.214844 C 164.953125 99.757812 162.585938 99.757812 161.128906 101.214844 C 159.671875 102.675781 159.671875 105.042969 161.128906 106.5 L 165.121094 110.496094 C 165.847656 111.226562 166.804688 111.589844 167.761719 111.589844 C 168.714844 111.589844 169.671875 111.226562 170.402344 110.496094 C 171.859375 109.035156 171.859375 106.671875 170.402344 105.210938 Z M 170.402344 105.210938 " fill-opacity="1" fill-rule="nonzero"/><path fill="#000000" d="M 153.148438 193.078125 C 151.6875 194.539062 151.6875 196.902344 153.148438 198.363281 L 157.136719 202.355469 C 157.867188 203.085938 158.824219 203.449219 159.777344 203.449219 C 160.734375 203.449219 161.6875 203.085938 162.417969 202.355469 C 163.875 200.898438 163.875 198.53125 162.417969 197.070312 L 158.425781 193.078125 C 156.96875 191.617188 154.605469 191.617188 153.148438 193.078125 Z M 153.148438 193.078125 " fill-opacity="1" fill-rule="nonzero"/><path fill="#000000" d="M 199.945312 279.59375 L 199.945312 283.589844 C 199.945312 285.652344 201.617188 287.324219 203.679688 287.324219 C 205.742188 287.324219 207.414062 285.652344 207.414062 283.589844 L 207.414062 279.59375 C 207.414062 277.53125 205.742188 275.855469 203.679688 275.855469 C 201.617188 275.855469 199.945312 277.53125 199.945312 279.59375 Z M 199.945312 279.59375 " fill-opacity="1" fill-rule="nonzero"/><path fill="#000000" d="M 182.375 134.460938 L 186.363281 130.464844 C 187.824219 129.007812 187.824219 126.640625 186.363281 125.179688 C 184.90625 123.722656 182.542969 123.722656 181.085938 125.179688 L 177.09375 129.175781 C 175.636719 130.632812 175.636719 133 177.09375 134.460938 C 177.820312 135.1875 178.777344 135.554688 179.734375 135.554688 C 180.6875 135.554688 181.644531 135.1875 182.375 134.460938 Z M 182.375 134.460938 " fill-opacity="1" fill-rule="nonzero"/><path fill="#000000" d="M 244.261719 119.855469 L 254.398438 123.660156 C 256.175781 124.328125 258.046875 124.65625 259.910156 124.65625 C 262.429688 124.65625 264.941406 124.054688 267.214844 122.859375 C 271.171875 120.777344 274.066406 117.09375 275.152344 112.753906 L 278.761719 98.289062 C 280.152344 92.734375 278.507812 87.058594 274.371094 83.105469 C 270.234375 79.152344 264.492188 77.773438 259.011719 79.421875 L 246.40625 83.207031 C 240.714844 84.914062 236.402344 89.808594 235.425781 95.675781 L 234.28125 102.550781 C 233.050781 109.945312 237.246094 117.222656 244.261719 119.855469 Z M 241.648438 103.78125 L 242.792969 96.90625 C 243.304688 93.828125 245.566406 91.261719 248.550781 90.363281 L 261.15625 86.578125 C 261.957031 86.339844 262.765625 86.222656 263.5625 86.222656 C 265.640625 86.222656 267.648438 87.015625 269.214844 88.511719 C 271.386719 90.585938 272.246094 93.5625 271.519531 96.476562 L 267.90625 110.941406 C 267.328125 113.25 265.851562 115.132812 263.742188 116.242188 C 261.636719 117.347656 259.25 117.496094 257.019531 116.660156 L 246.882812 112.855469 C 243.203125 111.476562 241.003906 107.660156 241.648438 103.78125 Z M 241.648438 103.78125 " fill-opacity="1" fill-rule="nonzero"/><path fill="#000000" d="M 273.019531 138.875 C 267.480469 141.644531 265.050781 148.28125 267.492188 153.980469 L 271.367188 163.035156 C 272.988281 166.8125 276.378906 169.425781 280.445312 170.019531 C 281.023438 170.101562 281.597656 170.144531 282.171875 170.144531 C 285.617188 170.144531 288.882812 168.632812 291.136719 165.921875 L 297.375 158.429688 C 299.453125 155.9375 300.390625 152.789062 300.011719 149.5625 C 299.636719 146.339844 298 143.492188 295.40625 141.542969 L 290.109375 137.570312 C 286.535156 134.886719 281.835938 134.464844 277.839844 136.460938 Z M 281.179688 143.148438 C 281.785156 142.84375 282.4375 142.695312 283.085938 142.695312 C 283.984375 142.695312 284.875 142.984375 285.628906 143.546875 L 290.925781 147.523438 C 291.867188 148.230469 292.457031 149.261719 292.59375 150.429688 C 292.730469 151.601562 292.390625 152.742188 291.640625 153.644531 L 285.402344 161.136719 C 284.433594 162.300781 283.019531 162.839844 281.523438 162.621094 C 280.027344 162.402344 278.828125 161.480469 278.234375 160.089844 L 274.355469 151.035156 C 273.46875 148.96875 274.351562 146.5625 276.359375 145.558594 Z M 281.179688 143.148438 " fill-opacity="1" fill-rule="nonzero"/><g clip-path="url(#8e79c15017)"><path fill="#000000" d="M 303.457031 127.566406 C 309.917969 127.566406 315.171875 122.304688 315.171875 115.839844 C 315.171875 109.375 309.917969 104.117188 303.457031 104.117188 C 296.996094 104.117188 291.742188 109.375 291.742188 115.839844 C 291.742188 122.304688 296.996094 127.566406 303.457031 127.566406 Z M 303.457031 111.589844 C 305.800781 111.589844 307.703125 113.496094 307.703125 115.839844 C 307.703125 118.183594 305.796875 120.09375 303.457031 120.09375 C 301.113281 120.09375 299.207031 118.183594 299.207031 115.839844 C 299.207031 113.496094 301.113281 111.589844 303.457031 111.589844 Z M 303.457031 111.589844 " fill-opacity="1" fill-rule="nonzero"/></g><path fill="#000000" d="M 304.605469 199.59375 C 302.902344 199.84375 301.171875 199.972656 299.464844 199.972656 C 283.695312 199.972656 269.863281 189.878906 265.039062 174.855469 C 263.71875 170.746094 260.34375 167.707031 256.222656 166.921875 C 227.941406 161.535156 207.414062 136.691406 207.414062 107.851562 C 207.414062 95.941406 210.898438 84.421875 217.492188 74.535156 C 218.941406 72.363281 219.210938 69.644531 218.21875 67.25 C 217.226562 64.855469 215.101562 63.121094 212.539062 62.613281 C 199.835938 60.097656 186.800781 59.53125 173.796875 60.929688 C 147.78125 63.734375 123.527344 74.476562 103.664062 91.992188 C 102.117188 93.355469 101.96875 95.71875 103.332031 97.265625 C 104.695312 98.8125 107.054688 98.960938 108.601562 97.597656 C 127.300781 81.109375 150.121094 71 174.597656 68.363281 C 186.851562 67.042969 199.128906 67.574219 211.089844 69.945312 C 211.175781 69.964844 211.273438 69.996094 211.320312 70.117188 C 211.367188 70.230469 211.332031 70.3125 211.28125 70.386719 C 203.867188 81.507812 199.945312 94.460938 199.945312 107.851562 C 199.945312 140.277344 223.027344 168.207031 254.828125 174.265625 C 256.257812 174.539062 257.445312 175.640625 257.929688 177.140625 C 263.746094 195.265625 280.441406 207.445312 299.464844 207.445312 C 301.535156 207.445312 303.628906 207.289062 305.691406 206.988281 C 305.964844 206.945312 306.105469 207.109375 306.113281 207.152344 C 302.511719 229.304688 292.730469 249.984375 277.828125 266.957031 C 276.46875 268.507812 276.621094 270.867188 278.171875 272.230469 C 278.878906 272.851562 279.757812 273.160156 280.632812 273.160156 C 281.671875 273.160156 282.703125 272.730469 283.441406 271.890625 C 299.269531 253.859375 309.660156 231.890625 313.484375 208.351562 C 313.871094 205.957031 313.117188 203.589844 311.410156 201.859375 C 309.65625 200.070312 307.109375 199.226562 304.605469 199.59375 Z M 304.605469 199.59375 " fill-opacity="1" fill-rule="nonzero"/><g clip-path="url(#9d3c215abe)"><path fill="#000000" d="M 266.882812 277.917969 C 244.988281 297.195312 216.871094 307.808594 187.714844 307.808594 C 170.90625 307.808594 154.652344 304.402344 139.402344 297.679688 C 124.667969 291.183594 111.5625 281.925781 100.460938 270.15625 C 89.375 258.410156 80.902344 244.816406 75.28125 229.761719 C 69.433594 214.101562 66.960938 197.578125 67.929688 180.652344 C 69.441406 154.269531 79.996094 128.667969 97.65625 108.566406 C 99.019531 107.015625 98.867188 104.652344 97.316406 103.292969 C 95.769531 101.929688 93.410156 102.082031 92.046875 103.632812 C 73.292969 124.980469 62.078125 152.183594 60.472656 180.226562 C 59.445312 198.195312 62.070312 215.738281 68.285156 232.375 C 74.257812 248.375 83.257812 262.8125 95.03125 275.289062 C 106.824219 287.785156 120.738281 297.621094 136.390625 304.519531 C 152.597656 311.660156 169.867188 315.28125 187.714844 315.28125 C 218.691406 315.28125 248.558594 304.003906 271.816406 283.527344 C 273.363281 282.164062 273.515625 279.804688 272.152344 278.253906 C 270.792969 276.707031 268.429688 276.554688 266.882812 277.917969 Z M 266.882812 277.917969 " fill-opacity="1" fill-rule="nonzero"/></g></svg>