<svg xmlns="http://www.w3.org/2000/svg" xmlns:xlink="http://www.w3.org/1999/xlink" width="500" zoomAndPan="magnify" viewBox="0 0 375 374.999991" height="500" preserveAspectRatio="xMidYMid meet" version="1.0"><defs><clipPath id="f43193ce6e"><path d="M 187.5 0 C 83.945312 0 0 83.945312 0 187.5 C 0 291.054688 83.945312 375 187.5 375 C 291.054688 375 375 291.054688 375 187.5 C 375 83.945312 291.054688 0 187.5 0 " clip-rule="nonzero"/></clipPath><clipPath id="49cfc9443b"><path d="M 1 63 L 314 63 L 314 374.933594 L 1 374.933594 Z M 1 63 " clip-rule="nonzero"/></clipPath></defs><g clip-path="url(#f43193ce6e)"><rect x="-37.5" width="450" fill="#faf9f4" y="-37.499999" height="449.999989" fill-opacity="1"/></g><path fill="#f5b97d" d="M 360.488281 211.050781 C 357.769531 211.449219 354.992188 211.660156 352.164062 211.660156 C 326.121094 211.660156 304.082031 194.628906 296.523438 171.109375 C 295.230469 167.089844 291.945312 163.992188 287.796875 163.203125 C 244.550781 154.972656 211.847656 117.015625 211.847656 71.390625 C 211.847656 52.226562 217.632812 34.425781 227.53125 19.597656 C 229.886719 16.074219 227.921875 11.378906 223.761719 10.554688 C 212.34375 8.296875 200.542969 7.097656 188.460938 7.097656 C 88.359375 7.097656 7.214844 88.21875 7.214844 188.28125 C 7.214844 288.34375 88.359375 369.460938 188.460938 369.460938 C 278.671875 369.460938 353.269531 303.816406 367.300781 217.578125 C 367.9375 213.664062 364.410156 210.472656 360.488281 211.050781 Z M 360.488281 211.050781 " fill-opacity="1" fill-rule="nonzero"/><path fill="#cd916e" d="M 129.992188 129.835938 C 129.992188 130.601562 129.953125 131.363281 129.878906 132.125 C 129.804688 132.886719 129.691406 133.644531 129.542969 134.394531 C 129.394531 135.148438 129.207031 135.886719 128.984375 136.621094 C 128.761719 137.355469 128.503906 138.074219 128.210938 138.78125 C 127.917969 139.488281 127.59375 140.179688 127.230469 140.855469 C 126.871094 141.53125 126.476562 142.1875 126.050781 142.820312 C 125.625 143.457031 125.171875 144.074219 124.683594 144.664062 C 124.199219 145.257812 123.683594 145.824219 123.144531 146.363281 C 122.601562 146.90625 122.035156 147.417969 121.445312 147.90625 C 120.851562 148.390625 120.238281 148.847656 119.601562 149.269531 C 118.964844 149.695312 118.308594 150.089844 117.632812 150.449219 C 116.957031 150.8125 116.265625 151.136719 115.558594 151.429688 C 114.851562 151.722656 114.128906 151.980469 113.398438 152.203125 C 112.664062 152.425781 111.921875 152.613281 111.171875 152.761719 C 110.421875 152.910156 109.664062 153.023438 108.902344 153.097656 C 108.140625 153.171875 107.375 153.210938 106.609375 153.210938 C 105.84375 153.210938 105.078125 153.171875 104.316406 153.097656 C 103.554688 153.023438 102.796875 152.910156 102.046875 152.761719 C 101.296875 152.613281 100.554688 152.425781 99.820312 152.203125 C 99.089844 151.980469 98.367188 151.722656 97.660156 151.429688 C 96.953125 151.136719 96.261719 150.8125 95.585938 150.449219 C 94.910156 150.089844 94.253906 149.695312 93.617188 149.269531 C 92.980469 148.847656 92.367188 148.390625 91.773438 147.90625 C 91.183594 147.417969 90.617188 146.90625 90.074219 146.363281 C 89.535156 145.824219 89.019531 145.257812 88.535156 144.664062 C 88.046875 144.074219 87.59375 143.457031 87.167969 142.820312 C 86.742188 142.1875 86.347656 141.53125 85.988281 140.855469 C 85.625 140.179688 85.300781 139.488281 85.007812 138.78125 C 84.714844 138.074219 84.457031 137.355469 84.234375 136.621094 C 84.011719 135.886719 83.824219 135.148438 83.675781 134.394531 C 83.527344 133.644531 83.414062 132.886719 83.339844 132.125 C 83.265625 131.363281 83.226562 130.601562 83.226562 129.835938 C 83.226562 129.070312 83.265625 128.304688 83.339844 127.542969 C 83.414062 126.78125 83.527344 126.027344 83.675781 125.273438 C 83.824219 124.523438 84.011719 123.78125 84.234375 123.050781 C 84.457031 122.316406 84.714844 121.597656 85.007812 120.890625 C 85.300781 120.183594 85.625 119.492188 85.988281 118.816406 C 86.347656 118.140625 86.742188 117.484375 87.167969 116.847656 C 87.59375 116.210938 88.046875 115.597656 88.535156 115.007812 C 89.019531 114.414062 89.535156 113.847656 90.074219 113.308594 C 90.617188 112.765625 91.183594 112.253906 91.773438 111.765625 C 92.367188 111.28125 92.980469 110.824219 93.617188 110.398438 C 94.253906 109.972656 94.910156 109.582031 95.585938 109.21875 C 96.261719 108.859375 96.953125 108.53125 97.660156 108.238281 C 98.367188 107.945312 99.089844 107.6875 99.820312 107.46875 C 100.554688 107.246094 101.296875 107.058594 102.046875 106.910156 C 102.796875 106.761719 103.554688 106.648438 104.316406 106.574219 C 105.078125 106.496094 105.84375 106.460938 106.609375 106.460938 C 107.375 106.460938 108.140625 106.496094 108.902344 106.574219 C 109.664062 106.648438 110.421875 106.761719 111.171875 106.910156 C 111.921875 107.058594 112.664062 107.246094 113.398438 107.46875 C 114.128906 107.6875 114.851562 107.945312 115.558594 108.238281 C 116.265625 108.53125 116.957031 108.859375 117.632812 109.21875 C 118.308594 109.582031 118.964844 109.972656 119.601562 110.398438 C 120.238281 110.824219 120.851562 111.28125 121.445312 111.765625 C 122.035156 112.253906 122.601562 112.765625 123.144531 113.308594 C 123.683594 113.847656 124.199219 114.414062 124.683594 115.007812 C 125.171875 115.597656 125.625 116.210938 126.050781 116.847656 C 126.476562 117.484375 126.871094 118.140625 127.230469 118.816406 C 127.59375 119.492188 127.917969 120.183594 128.210938 120.890625 C 128.503906 121.597656 128.761719 122.316406 128.984375 123.050781 C 129.207031 123.78125 129.394531 124.523438 129.542969 125.273438 C 129.691406 126.027344 129.804688 126.78125 129.878906 127.542969 C 129.953125 128.304688 129.992188 129.070312 129.992188 129.835938 Z M 129.992188 129.835938 " fill-opacity="1" fill-rule="nonzero"/><path fill="#cd916e" d="M 135.839844 246.726562 C 135.839844 247.300781 135.8125 247.871094 135.757812 248.445312 C 135.699219 249.015625 135.617188 249.582031 135.503906 250.144531 C 135.390625 250.710938 135.253906 251.265625 135.085938 251.816406 C 134.917969 252.363281 134.726562 252.90625 134.507812 253.433594 C 134.285156 253.964844 134.039062 254.484375 133.769531 254.992188 C 133.5 255.496094 133.203125 255.988281 132.886719 256.46875 C 132.566406 256.945312 132.222656 257.40625 131.859375 257.847656 C 131.496094 258.292969 131.109375 258.71875 130.703125 259.125 C 130.296875 259.53125 129.871094 259.914062 129.429688 260.28125 C 128.984375 260.644531 128.523438 260.984375 128.046875 261.304688 C 127.566406 261.625 127.074219 261.917969 126.570312 262.191406 C 126.0625 262.460938 125.542969 262.707031 125.011719 262.925781 C 124.480469 263.144531 123.941406 263.339844 123.390625 263.503906 C 122.84375 263.671875 122.285156 263.8125 121.722656 263.921875 C 121.160156 264.035156 120.589844 264.121094 120.019531 264.175781 C 119.449219 264.230469 118.875 264.261719 118.300781 264.261719 C 117.726562 264.261719 117.152344 264.230469 116.582031 264.175781 C 116.007812 264.121094 115.441406 264.035156 114.878906 263.921875 C 114.316406 263.8125 113.757812 263.671875 113.207031 263.503906 C 112.660156 263.339844 112.117188 263.144531 111.585938 262.925781 C 111.058594 262.707031 110.539062 262.460938 110.03125 262.191406 C 109.523438 261.917969 109.03125 261.625 108.554688 261.304688 C 108.078125 260.984375 107.617188 260.644531 107.171875 260.28125 C 106.726562 259.914062 106.304688 259.53125 105.898438 259.125 C 105.492188 258.71875 105.105469 258.292969 104.742188 257.847656 C 104.375 257.40625 104.035156 256.945312 103.714844 256.46875 C 103.394531 255.988281 103.101562 255.496094 102.832031 254.992188 C 102.558594 254.484375 102.3125 253.964844 102.09375 253.433594 C 101.875 252.90625 101.679688 252.363281 101.515625 251.816406 C 101.347656 251.265625 101.207031 250.710938 101.097656 250.144531 C 100.984375 249.582031 100.898438 249.015625 100.84375 248.445312 C 100.789062 247.871094 100.757812 247.300781 100.757812 246.726562 C 100.757812 246.152344 100.789062 245.578125 100.84375 245.007812 C 100.898438 244.433594 100.984375 243.867188 101.097656 243.304688 C 101.207031 242.742188 101.347656 242.183594 101.515625 241.636719 C 101.679688 241.085938 101.875 240.546875 102.09375 240.015625 C 102.3125 239.484375 102.558594 238.964844 102.832031 238.460938 C 103.101562 237.953125 103.394531 237.460938 103.714844 236.984375 C 104.035156 236.503906 104.375 236.046875 104.742188 235.601562 C 105.105469 235.15625 105.492188 234.730469 105.898438 234.324219 C 106.304688 233.917969 106.726562 233.535156 107.171875 233.171875 C 107.617188 232.804688 108.078125 232.464844 108.554688 232.144531 C 109.03125 231.828125 109.523438 231.53125 110.03125 231.261719 C 110.539062 230.988281 111.058594 230.746094 111.585938 230.523438 C 112.117188 230.304688 112.660156 230.113281 113.207031 229.945312 C 113.757812 229.777344 114.316406 229.640625 114.878906 229.527344 C 115.441406 229.414062 116.007812 229.332031 116.582031 229.273438 C 117.152344 229.21875 117.726562 229.191406 118.300781 229.191406 C 118.875 229.191406 119.449219 229.21875 120.019531 229.273438 C 120.589844 229.332031 121.160156 229.414062 121.722656 229.527344 C 122.285156 229.640625 122.84375 229.777344 123.390625 229.945312 C 123.941406 230.113281 124.480469 230.304688 125.011719 230.523438 C 125.542969 230.746094 126.0625 230.988281 126.570312 231.261719 C 127.074219 231.53125 127.566406 231.828125 128.046875 232.144531 C 128.523438 232.464844 128.984375 232.804688 129.429688 233.171875 C 129.871094 233.535156 130.296875 233.917969 130.703125 234.324219 C 131.109375 234.730469 131.496094 235.15625 131.859375 235.601562 C 132.222656 236.046875 132.566406 236.503906 132.886719 236.984375 C 133.203125 237.460938 133.5 237.953125 133.769531 238.460938 C 134.039062 238.964844 134.285156 239.484375 134.507812 240.015625 C 134.726562 240.546875 134.917969 241.085938 135.085938 241.636719 C 135.253906 242.183594 135.390625 242.742188 135.503906 243.304688 C 135.617188 243.867188 135.699219 244.433594 135.757812 245.007812 C 135.8125 245.578125 135.839844 246.152344 135.839844 246.726562 Z M 135.839844 246.726562 " fill-opacity="1" fill-rule="nonzero"/><path fill="#f5b97d" d="M 263.746094 54.472656 L 262.070312 64.53125 C 260.691406 72.800781 265.359375 80.890625 273.210938 83.832031 L 288.0625 89.398438 C 297.871094 93.078125 308.695312 87.394531 311.238281 77.234375 L 316.53125 56.066406 C 319.828125 42.875 307.503906 31.113281 294.472656 35.019531 L 276.007812 40.558594 C 269.601562 42.480469 264.847656 47.875 263.746094 54.472656 Z M 263.746094 54.472656 " fill-opacity="1" fill-rule="nonzero"/><path fill="#f5b97d" d="M 322.929688 118.148438 L 315.871094 121.675781 C 310.332031 124.445312 307.914062 131.046875 310.351562 136.734375 L 316.03125 149.984375 C 319.472656 158.007812 330.175781 159.570312 335.761719 152.863281 L 344.902344 141.902344 C 349.1875 136.761719 348.289062 129.082031 342.933594 125.066406 L 335.175781 119.25 C 331.632812 116.59375 326.890625 116.167969 322.929688 118.148438 Z M 322.929688 118.148438 " fill-opacity="1" fill-rule="nonzero"/><path fill="#f5b97d" d="M 369.699219 83.078125 C 369.699219 83.84375 369.625 84.605469 369.476562 85.359375 C 369.324219 86.109375 369.105469 86.839844 368.8125 87.550781 C 368.515625 88.257812 368.15625 88.933594 367.730469 89.570312 C 367.304688 90.210938 366.820312 90.800781 366.277344 91.34375 C 365.734375 91.886719 365.144531 92.371094 364.503906 92.796875 C 363.867188 93.222656 363.191406 93.582031 362.484375 93.875 C 361.773438 94.167969 361.042969 94.390625 360.289062 94.542969 C 359.535156 94.691406 358.777344 94.765625 358.007812 94.765625 C 357.242188 94.765625 356.480469 94.691406 355.726562 94.542969 C 354.976562 94.390625 354.242188 94.167969 353.535156 93.875 C 352.824219 93.582031 352.152344 93.222656 351.511719 92.796875 C 350.875 92.371094 350.285156 91.886719 349.742188 91.34375 C 349.199219 90.800781 348.714844 90.210938 348.289062 89.570312 C 347.859375 88.933594 347.5 88.257812 347.207031 87.550781 C 346.914062 86.839844 346.691406 86.109375 346.542969 85.359375 C 346.390625 84.605469 346.316406 83.84375 346.316406 83.078125 C 346.316406 82.3125 346.390625 81.550781 346.542969 80.796875 C 346.691406 80.046875 346.914062 79.3125 347.207031 78.605469 C 347.5 77.894531 347.859375 77.222656 348.289062 76.585938 C 348.714844 75.945312 349.199219 75.355469 349.742188 74.8125 C 350.285156 74.269531 350.875 73.785156 351.511719 73.359375 C 352.152344 72.933594 352.824219 72.574219 353.535156 72.28125 C 354.242188 71.988281 354.976562 71.765625 355.726562 71.613281 C 356.480469 71.464844 357.242188 71.390625 358.007812 71.390625 C 358.777344 71.390625 359.535156 71.464844 360.289062 71.613281 C 361.042969 71.765625 361.773438 71.988281 362.484375 72.28125 C 363.191406 72.574219 363.867188 72.933594 364.503906 73.359375 C 365.144531 73.785156 365.734375 74.269531 366.277344 74.8125 C 366.820312 75.355469 367.304688 75.945312 367.730469 76.585938 C 368.15625 77.222656 368.515625 77.894531 368.8125 78.605469 C 369.105469 79.3125 369.324219 80.046875 369.476562 80.796875 C 369.625 81.550781 369.699219 82.3125 369.699219 83.078125 Z M 369.699219 83.078125 " fill-opacity="1" fill-rule="nonzero"/><path fill="#e3aa75" d="M 210.382812 347.546875 C 110.285156 347.546875 29.140625 266.429688 29.140625 166.363281 C 29.140625 121.910156 45.179688 81.222656 71.753906 49.699219 C 32.304688 82.933594 7.214844 132.667969 7.214844 188.28125 C 7.214844 288.34375 88.363281 369.460938 188.460938 369.460938 C 244.125 369.460938 293.820312 344.445312 327.035156 305.042969 C 295.535156 331.5625 254.867188 347.546875 210.382812 347.546875 Z M 210.382812 347.546875 " fill-opacity="1" fill-rule="nonzero"/><path fill="#e3aa75" d="M 290.664062 75.835938 C 280.855469 72.160156 275.023438 62.058594 276.746094 51.730469 L 278.746094 39.738281 L 276.007812 40.558594 C 269.601562 42.480469 264.847656 47.878906 263.746094 54.472656 L 262.070312 64.535156 C 260.691406 72.800781 265.359375 80.890625 273.210938 83.832031 L 288.0625 89.398438 C 295.9375 92.351562 304.394531 89.210938 308.765625 82.621094 Z M 290.664062 75.835938 " fill-opacity="1" fill-rule="nonzero"/><path fill="#e3aa75" d="M 328.507812 142.453125 L 322.074219 127.445312 C 320.863281 124.628906 320.765625 121.628906 321.496094 118.863281 L 315.871094 121.675781 C 310.332031 124.441406 307.914062 131.046875 310.351562 136.734375 L 316.03125 149.984375 C 319.472656 158.007812 330.175781 159.570312 335.761719 152.863281 L 338.035156 150.136719 C 334.015625 149.320312 330.339844 146.734375 328.507812 142.453125 Z M 328.507812 142.453125 " fill-opacity="1" fill-rule="nonzero"/><path fill="#b67f5f" d="M 119.03125 140.792969 C 106.117188 140.792969 95.644531 130.328125 95.644531 117.417969 C 95.644531 114.183594 96.304688 111.101562 97.492188 108.300781 C 89.105469 111.855469 83.222656 120.15625 83.222656 129.835938 C 83.222656 142.746094 93.691406 153.214844 106.609375 153.214844 C 116.289062 153.214844 124.59375 147.332031 128.148438 138.949219 C 125.347656 140.136719 122.265625 140.792969 119.03125 140.792969 Z M 119.03125 140.792969 " fill-opacity="1" fill-rule="nonzero"/><path fill="#b67f5f" d="M 127.4375 255.128906 C 117.75 255.128906 109.898438 247.277344 109.898438 237.59375 C 109.898438 235.121094 110.421875 232.777344 111.34375 230.640625 C 105.121094 233.335938 100.761719 239.515625 100.761719 246.726562 C 100.761719 256.410156 108.613281 264.261719 118.300781 264.261719 C 125.515625 264.261719 131.699219 259.902344 134.390625 253.679688 C 132.257812 254.605469 129.910156 255.128906 127.4375 255.128906 Z M 127.4375 255.128906 " fill-opacity="1" fill-rule="nonzero"/><path fill="#cd916e" d="M 252.769531 264.257812 C 252.769531 265.023438 252.734375 265.789062 252.660156 266.550781 C 252.582031 267.3125 252.472656 268.070312 252.320312 268.820312 C 252.171875 269.570312 251.988281 270.3125 251.765625 271.042969 C 251.542969 271.777344 251.285156 272.496094 250.992188 273.203125 C 250.699219 273.910156 250.371094 274.601562 250.011719 275.277344 C 249.648438 275.953125 249.253906 276.609375 248.832031 277.246094 C 248.40625 277.882812 247.949219 278.496094 247.464844 279.089844 C 246.976562 279.679688 246.464844 280.246094 245.921875 280.789062 C 245.378906 281.328125 244.8125 281.84375 244.222656 282.328125 C 243.628906 282.8125 243.015625 283.269531 242.378906 283.695312 C 241.742188 284.121094 241.085938 284.511719 240.410156 284.875 C 239.734375 285.234375 239.042969 285.5625 238.335938 285.855469 C 237.628906 286.148438 236.910156 286.40625 236.175781 286.628906 C 235.441406 286.851562 234.699219 287.035156 233.949219 287.183594 C 233.199219 287.335938 232.441406 287.445312 231.679688 287.523438 C 230.917969 287.597656 230.152344 287.632812 229.386719 287.632812 C 228.621094 287.632812 227.859375 287.597656 227.097656 287.523438 C 226.332031 287.445312 225.578125 287.335938 224.824219 287.183594 C 224.074219 287.035156 223.332031 286.851562 222.601562 286.628906 C 221.867188 286.40625 221.148438 286.148438 220.4375 285.855469 C 219.730469 285.5625 219.039062 285.234375 218.363281 284.875 C 217.691406 284.511719 217.035156 284.121094 216.398438 283.695312 C 215.761719 283.269531 215.144531 282.8125 214.554688 282.328125 C 213.960938 281.84375 213.394531 281.328125 212.851562 280.789062 C 212.3125 280.246094 211.796875 279.679688 211.3125 279.089844 C 210.828125 278.496094 210.371094 277.882812 209.945312 277.246094 C 209.519531 276.609375 209.125 275.953125 208.765625 275.277344 C 208.40625 274.601562 208.078125 273.910156 207.785156 273.203125 C 207.492188 272.496094 207.234375 271.777344 207.011719 271.042969 C 206.789062 270.3125 206.601562 269.570312 206.453125 268.820312 C 206.304688 268.070312 206.191406 267.3125 206.117188 266.550781 C 206.042969 265.789062 206.003906 265.023438 206.003906 264.257812 C 206.003906 263.492188 206.042969 262.730469 206.117188 261.96875 C 206.191406 261.207031 206.304688 260.449219 206.453125 259.699219 C 206.601562 258.949219 206.789062 258.207031 207.011719 257.472656 C 207.234375 256.742188 207.492188 256.019531 207.785156 255.3125 C 208.078125 254.605469 208.40625 253.914062 208.765625 253.242188 C 209.125 252.566406 209.519531 251.910156 209.945312 251.273438 C 210.371094 250.636719 210.828125 250.023438 211.3125 249.429688 C 211.796875 248.839844 212.3125 248.273438 212.851562 247.730469 C 213.394531 247.1875 213.960938 246.675781 214.554688 246.191406 C 215.144531 245.703125 215.761719 245.25 216.398438 244.824219 C 217.035156 244.398438 217.691406 244.003906 218.363281 243.644531 C 219.039062 243.285156 219.730469 242.957031 220.4375 242.664062 C 221.148438 242.371094 221.867188 242.113281 222.601562 241.890625 C 223.332031 241.667969 224.074219 241.484375 224.824219 241.332031 C 225.578125 241.183594 226.332031 241.070312 227.097656 240.996094 C 227.859375 240.921875 228.621094 240.882812 229.386719 240.882812 C 230.152344 240.882812 230.917969 240.921875 231.679688 240.996094 C 232.441406 241.070312 233.199219 241.183594 233.949219 241.332031 C 234.699219 241.484375 235.441406 241.667969 236.175781 241.890625 C 236.910156 242.113281 237.628906 242.371094 238.335938 242.664062 C 239.042969 242.957031 239.734375 243.285156 240.410156 243.644531 C 241.085938 244.003906 241.742188 244.398438 242.378906 244.824219 C 243.015625 245.25 243.628906 245.703125 244.222656 246.191406 C 244.8125 246.675781 245.378906 247.1875 245.921875 247.730469 C 246.464844 248.273438 246.976562 248.839844 247.464844 249.429688 C 247.949219 250.023438 248.40625 250.636719 248.832031 251.273438 C 249.253906 251.910156 249.648438 252.566406 250.011719 253.242188 C 250.371094 253.914062 250.699219 254.605469 250.992188 255.3125 C 251.285156 256.019531 251.542969 256.742188 251.765625 257.472656 C 251.988281 258.207031 252.171875 258.949219 252.320312 259.699219 C 252.472656 260.449219 252.582031 261.207031 252.660156 261.96875 C 252.734375 262.730469 252.769531 263.492188 252.769531 264.257812 Z M 252.769531 264.257812 " fill-opacity="1" fill-rule="nonzero"/><path fill="#b67f5f" d="M 241.808594 275.21875 C 228.894531 275.21875 218.421875 264.75 218.421875 251.839844 C 218.421875 248.605469 219.082031 245.527344 220.269531 242.726562 C 211.882812 246.28125 206 254.582031 206 264.261719 C 206 277.171875 216.46875 287.636719 229.386719 287.636719 C 239.066406 287.636719 247.371094 281.757812 250.925781 273.375 C 248.125 274.5625 245.042969 275.21875 241.808594 275.21875 Z M 241.808594 275.21875 " fill-opacity="1" fill-rule="nonzero"/><path fill="#cd916e" d="M 194.058594 159.058594 C 194.058594 159.824219 193.984375 160.585938 193.832031 161.339844 C 193.683594 162.089844 193.460938 162.820312 193.167969 163.53125 C 192.875 164.238281 192.515625 164.914062 192.089844 165.550781 C 191.660156 166.191406 191.175781 166.78125 190.632812 167.324219 C 190.089844 167.863281 189.5 168.351562 188.863281 168.777344 C 188.222656 169.203125 187.550781 169.5625 186.839844 169.855469 C 186.132812 170.148438 185.402344 170.371094 184.648438 170.519531 C 183.894531 170.671875 183.132812 170.746094 182.367188 170.746094 C 181.597656 170.746094 180.839844 170.671875 180.085938 170.519531 C 179.332031 170.371094 178.601562 170.148438 177.894531 169.855469 C 177.183594 169.5625 176.507812 169.203125 175.871094 168.777344 C 175.234375 168.351562 174.640625 167.863281 174.101562 167.324219 C 173.558594 166.78125 173.070312 166.191406 172.644531 165.550781 C 172.21875 164.914062 171.859375 164.238281 171.566406 163.53125 C 171.273438 162.820312 171.050781 162.089844 170.898438 161.339844 C 170.75 160.585938 170.675781 159.824219 170.675781 159.058594 C 170.675781 158.289062 170.75 157.53125 170.898438 156.777344 C 171.050781 156.023438 171.273438 155.292969 171.566406 154.585938 C 171.859375 153.875 172.21875 153.203125 172.644531 152.566406 C 173.070312 151.925781 173.558594 151.335938 174.101562 150.792969 C 174.640625 150.25 175.234375 149.765625 175.871094 149.339844 C 176.507812 148.914062 177.183594 148.554688 177.894531 148.261719 C 178.601562 147.964844 179.332031 147.746094 180.085938 147.59375 C 180.839844 147.445312 181.597656 147.371094 182.367188 147.371094 C 183.132812 147.371094 183.894531 147.445312 184.648438 147.59375 C 185.402344 147.746094 186.132812 147.964844 186.839844 148.261719 C 187.550781 148.554688 188.222656 148.914062 188.863281 149.339844 C 189.5 149.765625 190.089844 150.25 190.632812 150.792969 C 191.175781 151.335938 191.660156 151.925781 192.089844 152.566406 C 192.515625 153.203125 192.875 153.875 193.167969 154.585938 C 193.460938 155.292969 193.683594 156.023438 193.832031 156.777344 C 193.984375 157.53125 194.058594 158.289062 194.058594 159.058594 Z M 194.058594 159.058594 " fill-opacity="1" fill-rule="nonzero"/><path fill="#000000" d="M 106.609375 100.988281 C 90.695312 100.988281 77.75 113.929688 77.75 129.835938 C 77.75 145.742188 90.695312 158.679688 106.609375 158.679688 C 122.519531 158.679688 135.464844 145.742188 135.464844 129.835938 C 135.464844 113.929688 122.519531 100.988281 106.609375 100.988281 Z M 106.609375 147.746094 C 96.730469 147.746094 88.691406 139.710938 88.691406 129.835938 C 88.691406 119.960938 96.730469 111.925781 106.609375 111.925781 C 116.484375 111.925781 124.523438 119.960938 124.523438 129.835938 C 124.523438 139.710938 116.484375 147.746094 106.609375 147.746094 Z M 106.609375 147.746094 " fill-opacity="1" fill-rule="nonzero"/><path fill="#000000" d="M 200.527344 264.261719 C 200.527344 280.167969 213.472656 293.105469 229.386719 293.105469 C 245.296875 293.105469 258.242188 280.167969 258.242188 264.261719 C 258.242188 248.355469 245.296875 235.414062 229.386719 235.414062 C 213.472656 235.414062 200.527344 248.355469 200.527344 264.261719 Z M 229.386719 246.351562 C 239.265625 246.351562 247.300781 254.386719 247.300781 264.261719 C 247.300781 274.136719 239.265625 282.167969 229.386719 282.167969 C 219.507812 282.167969 211.46875 274.136719 211.46875 264.261719 C 211.46875 254.386719 219.507812 246.351562 229.386719 246.351562 Z M 229.386719 246.351562 " fill-opacity="1" fill-rule="nonzero"/><path fill="#000000" d="M 118.300781 223.726562 C 105.613281 223.726562 95.289062 234.042969 95.289062 246.726562 C 95.289062 259.410156 105.613281 269.730469 118.300781 269.730469 C 130.988281 269.730469 141.3125 259.410156 141.3125 246.726562 C 141.3125 234.042969 130.988281 223.726562 118.300781 223.726562 Z M 118.300781 258.792969 C 111.644531 258.792969 106.230469 253.378906 106.230469 246.726562 C 106.230469 240.074219 111.644531 234.660156 118.300781 234.660156 C 124.957031 234.660156 130.371094 240.074219 130.371094 246.726562 C 130.371094 253.378906 124.957031 258.792969 118.300781 258.792969 Z M 118.300781 258.792969 " fill-opacity="1" fill-rule="nonzero"/><path fill="#000000" d="M 165.449219 159.058594 C 165.449219 168.519531 173.148438 176.214844 182.613281 176.214844 C 192.078125 176.214844 199.777344 168.519531 199.777344 159.058594 C 199.777344 149.597656 192.078125 141.902344 182.613281 141.902344 C 173.148438 141.902344 165.449219 149.597656 165.449219 159.058594 Z M 182.613281 152.835938 C 186.046875 152.835938 188.835938 155.628906 188.835938 159.058594 C 188.835938 162.488281 186.042969 165.277344 182.613281 165.277344 C 179.183594 165.277344 176.390625 162.488281 176.390625 159.058594 C 176.390625 155.628906 179.183594 152.835938 182.613281 152.835938 Z M 182.613281 152.835938 " fill-opacity="1" fill-rule="nonzero"/><path fill="#000000" d="M 293.703125 246.351562 C 294.523438 246.351562 295.359375 246.164062 296.144531 245.773438 C 298.847656 244.421875 299.941406 241.140625 298.589844 238.4375 L 292.742188 226.746094 C 291.394531 224.046875 288.109375 222.949219 285.40625 224.300781 C 282.703125 225.652344 281.609375 228.9375 282.957031 231.636719 L 288.804688 243.328125 C 289.765625 245.246094 291.695312 246.351562 293.703125 246.351562 Z M 293.703125 246.351562 " fill-opacity="1" fill-rule="nonzero"/><path fill="#000000" d="M 229.390625 211.285156 C 230.210938 211.285156 231.046875 211.097656 231.832031 210.707031 L 243.523438 204.863281 C 246.226562 203.511719 247.324219 200.226562 245.972656 197.523438 C 244.621094 194.824219 241.335938 193.726562 238.632812 195.078125 L 226.9375 200.925781 C 224.238281 202.273438 223.140625 205.558594 224.492188 208.261719 C 225.453125 210.175781 227.382812 211.285156 229.390625 211.285156 Z M 229.390625 211.285156 " fill-opacity="1" fill-rule="nonzero"/><path fill="#000000" d="M 66.636719 196.570312 C 67.59375 198.488281 69.523438 199.59375 71.53125 199.59375 C 72.355469 199.59375 73.1875 199.410156 73.972656 199.015625 C 76.675781 197.664062 77.773438 194.382812 76.421875 191.679688 L 70.574219 179.992188 C 69.222656 177.289062 65.9375 176.195312 63.234375 177.546875 C 60.53125 178.894531 59.4375 182.179688 60.789062 184.882812 Z M 66.636719 196.570312 " fill-opacity="1" fill-rule="nonzero"/><path fill="#000000" d="M 156.78125 288.59375 L 145.089844 294.4375 C 142.386719 295.785156 141.289062 299.070312 142.640625 301.773438 C 143.601562 303.6875 145.53125 304.796875 147.539062 304.796875 C 148.359375 304.796875 149.195312 304.609375 149.980469 304.21875 L 161.671875 298.375 C 164.375 297.023438 165.472656 293.738281 164.121094 291.039062 C 162.769531 288.335938 159.484375 287.242188 156.78125 288.59375 Z M 156.78125 288.59375 " fill-opacity="1" fill-rule="nonzero"/><path fill="#000000" d="M 163.09375 67.523438 L 157.25 61.679688 C 155.113281 59.542969 151.648438 59.542969 149.511719 61.679688 C 147.375 63.8125 147.375 67.277344 149.511719 69.410156 L 155.359375 75.257812 C 156.429688 76.324219 157.828125 76.859375 159.226562 76.859375 C 160.628906 76.859375 162.027344 76.324219 163.097656 75.257812 C 165.230469 73.121094 165.230469 69.660156 163.09375 67.523438 Z M 163.09375 67.523438 " fill-opacity="1" fill-rule="nonzero"/><path fill="#000000" d="M 137.820312 196.101562 C 135.683594 198.238281 135.683594 201.703125 137.820312 203.835938 L 143.664062 209.679688 C 144.734375 210.75 146.132812 211.28125 147.535156 211.28125 C 148.933594 211.28125 150.332031 210.75 151.402344 209.679688 C 153.539062 207.546875 153.539062 204.082031 151.402344 201.949219 L 145.554688 196.101562 C 143.417969 193.96875 139.957031 193.96875 137.820312 196.101562 Z M 137.820312 196.101562 " fill-opacity="1" fill-rule="nonzero"/><path fill="#000000" d="M 206.375 322.707031 L 206.375 328.550781 C 206.375 331.570312 208.824219 334.019531 211.847656 334.019531 C 214.867188 334.019531 217.316406 331.570312 217.316406 328.550781 L 217.316406 322.707031 C 217.316406 319.6875 214.867188 317.238281 211.847656 317.238281 C 208.824219 317.238281 206.375 319.6875 206.375 322.707031 Z M 206.375 322.707031 " fill-opacity="1" fill-rule="nonzero"/><path fill="#000000" d="M 180.632812 110.324219 L 186.480469 104.480469 C 188.617188 102.34375 188.617188 98.882812 186.480469 96.746094 C 184.34375 94.609375 180.882812 94.609375 178.746094 96.746094 L 172.898438 102.589844 C 170.761719 104.726562 170.761719 108.1875 172.898438 110.324219 C 173.96875 111.390625 175.367188 111.925781 176.765625 111.925781 C 178.167969 111.925781 179.566406 111.390625 180.632812 110.324219 Z M 180.632812 110.324219 " fill-opacity="1" fill-rule="nonzero"/><path fill="#000000" d="M 271.292969 88.953125 L 286.144531 94.519531 C 288.75 95.496094 291.488281 95.980469 294.21875 95.980469 C 297.90625 95.980469 301.585938 95.097656 304.917969 93.347656 C 310.71875 90.304688 314.957031 84.914062 316.542969 78.558594 L 321.835938 57.394531 C 323.871094 49.265625 321.464844 40.960938 315.402344 35.175781 C 309.339844 29.390625 300.929688 27.375 292.902344 29.785156 L 274.4375 35.320312 C 266.097656 37.824219 259.78125 44.984375 258.351562 53.570312 L 256.671875 63.632812 C 254.871094 74.453125 261.019531 85.101562 271.292969 88.953125 Z M 267.464844 65.429688 L 269.144531 55.371094 C 269.894531 50.867188 273.207031 47.109375 277.582031 45.796875 L 296.046875 40.257812 C 297.214844 39.910156 298.402344 39.738281 299.570312 39.738281 C 302.613281 39.738281 305.550781 40.898438 307.847656 43.089844 C 311.027344 46.121094 312.289062 50.480469 311.222656 54.742188 L 305.929688 75.90625 C 305.085938 79.289062 302.921875 82.042969 299.832031 83.664062 C 296.746094 85.285156 293.25 85.503906 289.984375 84.28125 L 275.132812 78.710938 C 269.746094 76.691406 266.519531 71.105469 267.464844 65.429688 Z M 267.464844 65.429688 " fill-opacity="1" fill-rule="nonzero"/><path fill="#000000" d="M 313.421875 116.785156 C 305.304688 120.839844 301.75 130.550781 305.324219 138.890625 L 311.003906 152.140625 C 313.375 157.667969 318.347656 161.488281 324.300781 162.359375 C 325.148438 162.480469 325.992188 162.542969 326.828125 162.542969 C 331.878906 162.542969 336.660156 160.328125 339.964844 156.363281 L 349.105469 145.402344 C 352.144531 141.753906 353.515625 137.144531 352.964844 132.425781 C 352.414062 127.710938 350.015625 123.542969 346.214844 120.691406 L 338.457031 114.875 C 333.222656 110.949219 326.335938 110.328125 320.484375 113.253906 Z M 325.378906 123.039062 C 326.265625 122.59375 327.21875 122.375 328.167969 122.375 C 329.484375 122.375 330.789062 122.796875 331.894531 123.625 L 339.652344 129.441406 C 341.03125 130.472656 341.898438 131.984375 342.097656 133.695312 C 342.296875 135.40625 341.800781 137.078125 340.699219 138.402344 L 331.558594 149.363281 C 330.140625 151.0625 328.070312 151.855469 325.878906 151.535156 C 323.6875 151.214844 321.929688 149.867188 321.058594 147.832031 L 315.378906 134.582031 C 314.082031 131.558594 315.371094 128.035156 318.316406 126.566406 L 325.378906 123.039062 C 325.375 123.039062 325.375 123.039062 325.378906 123.039062 Z M 325.378906 123.039062 " fill-opacity="1" fill-rule="nonzero"/><path fill="#000000" d="M 358.011719 100.234375 C 367.476562 100.234375 375.171875 92.539062 375.171875 83.078125 C 375.171875 73.617188 367.472656 65.921875 358.011719 65.921875 C 348.546875 65.921875 340.847656 73.621094 340.847656 83.078125 C 340.847656 92.539062 348.546875 100.234375 358.011719 100.234375 Z M 358.011719 76.859375 C 361.441406 76.859375 364.234375 79.648438 364.234375 83.078125 C 364.234375 86.507812 361.441406 89.300781 358.011719 89.300781 C 354.578125 89.300781 351.789062 86.507812 351.789062 83.078125 C 351.789062 79.648438 354.578125 76.859375 358.011719 76.859375 Z M 358.011719 76.859375 " fill-opacity="1" fill-rule="nonzero"/><path fill="#000000" d="M 359.691406 205.636719 C 357.195312 206.003906 354.664062 206.191406 352.164062 206.191406 C 329.0625 206.191406 308.796875 191.421875 301.730469 169.433594 C 299.800781 163.425781 294.851562 158.976562 288.820312 157.828125 C 247.386719 149.945312 217.316406 113.589844 217.316406 71.386719 C 217.316406 53.960938 222.421875 37.101562 232.082031 22.632812 C 234.199219 19.460938 234.597656 15.476562 233.144531 11.976562 C 231.691406 8.46875 228.578125 5.933594 224.824219 5.191406 C 206.214844 1.503906 187.121094 0.675781 168.074219 2.726562 C 129.957031 6.832031 94.429688 22.546875 65.332031 48.179688 C 63.066406 50.175781 62.847656 53.632812 64.847656 55.894531 C 66.84375 58.160156 70.300781 58.378906 72.566406 56.382812 C 99.957031 32.253906 133.386719 17.460938 169.242188 13.601562 C 187.191406 11.671875 205.175781 12.449219 222.699219 15.917969 C 222.828125 15.945312 222.96875 15.996094 223.039062 16.167969 C 223.109375 16.335938 223.054688 16.457031 222.980469 16.5625 C 212.117188 32.835938 206.375 51.792969 206.375 71.390625 C 206.375 118.835938 240.1875 159.707031 286.773438 168.574219 C 288.867188 168.972656 290.609375 170.585938 291.316406 172.78125 C 299.839844 199.304688 324.292969 217.128906 352.164062 217.128906 C 355.191406 217.128906 358.261719 216.902344 361.28125 216.457031 C 361.6875 216.398438 361.890625 216.636719 361.898438 216.699219 C 356.625 249.113281 342.300781 279.375 320.46875 304.210938 C 318.476562 306.480469 318.699219 309.9375 320.96875 311.929688 C 322.007812 312.84375 323.292969 313.289062 324.578125 313.289062 C 326.097656 313.289062 327.605469 312.660156 328.6875 311.433594 C 351.875 285.050781 367.09375 252.898438 372.699219 218.453125 C 373.269531 214.953125 372.164062 211.488281 369.664062 208.949219 C 367.089844 206.335938 363.363281 205.101562 359.691406 205.636719 Z M 359.691406 205.636719 " fill-opacity="1" fill-rule="nonzero"/><g clip-path="url(#49cfc9443b)"><path fill="#000000" d="M 304.433594 320.253906 C 272.359375 348.460938 231.171875 363.992188 188.460938 363.992188 C 163.839844 363.992188 140.027344 359.007812 117.683594 349.167969 C 96.097656 339.667969 76.90625 326.117188 60.640625 308.898438 C 44.398438 291.707031 31.988281 271.816406 23.75 249.78125 C 15.1875 226.867188 11.5625 202.691406 12.984375 177.921875 C 15.195312 139.3125 30.664062 101.851562 56.53125 72.433594 C 58.527344 70.164062 58.304688 66.707031 56.035156 64.714844 C 53.765625 62.722656 50.308594 62.941406 48.316406 65.210938 C 20.839844 96.453125 4.414062 136.257812 2.0625 177.296875 C 0.554688 203.589844 4.402344 229.265625 13.503906 253.609375 C 22.253906 277.019531 35.4375 298.148438 52.6875 316.40625 C 69.960938 334.691406 90.347656 349.082031 113.273438 359.179688 C 137.015625 369.628906 162.3125 374.929688 188.460938 374.929688 C 233.832031 374.929688 277.585938 358.425781 311.660156 328.464844 C 313.929688 326.46875 314.148438 323.011719 312.152344 320.746094 C 310.160156 318.480469 306.703125 318.257812 304.433594 320.253906 Z M 304.433594 320.253906 " fill-opacity="1" fill-rule="nonzero"/></g></svg>