<svg xmlns="http://www.w3.org/2000/svg" xmlns:xlink="http://www.w3.org/1999/xlink" width="500" zoomAndPan="magnify" viewBox="0 0 375 374.999991" height="500" preserveAspectRatio="xMidYMid meet" version="1.0"><defs><clipPath id="fd8abd49db"><path d="M 2.378906 2.378906 L 372.878906 2.378906 L 372.878906 372.878906 L 2.378906 372.878906 Z M 2.378906 2.378906 " clip-rule="nonzero"/></clipPath></defs><path fill="#1e1e1e" d="M 205.417969 132.070312 L 205.417969 162.1875 L 243.34375 162.1875 L 238.039062 203.390625 L 205.417969 203.390625 L 205.417969 297.808594 L 164.0625 297.808594 L 164.0625 203.390625 L 128.636719 203.390625 L 128.636719 162.1875 L 164.0625 162.1875 L 164.0625 132.070312 C 164.0625 99.449219 190.4375 77.445312 223.054688 77.445312 C 237.414062 77.445312 246.464844 79.628906 246.464844 79.628906 L 246.464844 114.433594 L 223.054688 114.433594 C 213.378906 114.433594 205.417969 122.394531 205.417969 132.070312 Z M 205.417969 132.070312 " fill-opacity="1" fill-rule="nonzero"/><g clip-path="url(#fd8abd49db)"><path fill="#1e1e1e" d="M 187.628906 372.878906 C 85.5625 372.878906 2.378906 289.851562 2.378906 187.628906 C 2.378906 85.40625 85.5625 2.378906 187.628906 2.378906 C 289.851562 2.378906 372.878906 85.5625 372.878906 187.628906 C 372.878906 289.695312 289.851562 372.878906 187.628906 372.878906 Z M 187.628906 12.523438 C 91.023438 12.523438 12.523438 91.023438 12.523438 187.628906 C 12.523438 284.234375 91.023438 362.734375 187.628906 362.734375 C 284.234375 362.734375 362.734375 284.234375 362.734375 187.628906 C 362.734375 91.023438 284.234375 12.523438 187.628906 12.523438 Z M 187.628906 12.523438 " fill-opacity="1" fill-rule="nonzero"/></g></svg>