<svg xmlns="http://www.w3.org/2000/svg" xmlns:xlink="http://www.w3.org/1999/xlink" width="500" zoomAndPan="magnify" viewBox="0 0 375 374.999991" height="500" preserveAspectRatio="xMidYMid meet" version="1.0"><defs><clipPath id="90d46215ce"><path d="M 5.898438 5.898438 L 368.898438 5.898438 L 368.898438 368.898438 L 5.898438 368.898438 Z M 5.898438 5.898438 " clip-rule="nonzero"/></clipPath></defs><path fill="#1e1e1e" d="M 234.800781 83.117188 L 140.152344 83.117188 C 108.804688 83.117188 83.269531 108.652344 83.269531 140 L 83.269531 234.648438 C 83.269531 265.992188 108.804688 291.527344 140.152344 291.527344 L 234.800781 291.527344 C 266.144531 291.527344 291.679688 265.992188 291.679688 234.648438 L 291.679688 140.152344 C 291.679688 108.652344 266.144531 83.117188 234.800781 83.117188 Z M 273.792969 234.800781 C 273.792969 256.359375 256.359375 273.792969 234.800781 273.792969 L 140.152344 273.792969 C 118.589844 273.792969 101.007812 256.359375 101.007812 234.800781 L 101.007812 140.152344 C 101.007812 118.589844 118.589844 101.007812 140.152344 101.007812 L 234.800781 101.007812 C 256.359375 101.007812 273.792969 118.4375 273.792969 140.152344 Z M 273.792969 234.800781 " fill-opacity="1" fill-rule="nonzero"/><path fill="#1e1e1e" d="M 257.125 130.367188 C 257.125 137.398438 251.46875 143.210938 244.28125 143.210938 C 237.246094 143.210938 231.4375 137.550781 231.4375 130.367188 C 231.4375 123.332031 237.09375 117.519531 244.28125 117.519531 C 251.46875 117.675781 257.125 123.332031 257.125 130.367188 Z M 257.125 130.367188 " fill-opacity="1" fill-rule="nonzero"/><path fill="#1e1e1e" d="M 187.398438 134.339844 C 158.195312 134.339844 134.339844 158.195312 134.339844 187.398438 C 134.339844 216.605469 158.195312 240.457031 187.398438 240.457031 C 216.605469 240.457031 240.457031 216.605469 240.457031 187.398438 C 240.457031 158.195312 216.757812 134.339844 187.398438 134.339844 Z M 187.398438 222.566406 C 167.980469 222.566406 152.230469 206.820312 152.230469 187.398438 C 152.230469 167.980469 167.980469 152.230469 187.398438 152.230469 C 206.820312 152.230469 222.566406 167.980469 222.566406 187.398438 C 222.566406 206.820312 206.820312 222.566406 187.398438 222.566406 Z M 187.398438 222.566406 " fill-opacity="1" fill-rule="nonzero"/><g clip-path="url(#90d46215ce)"><path fill="#1e1e1e" d="M 187.398438 368.898438 C 87.398438 368.898438 5.898438 287.554688 5.898438 187.398438 C 5.898438 87.398438 87.398438 5.898438 187.398438 5.898438 C 287.554688 5.898438 368.898438 87.398438 368.898438 187.398438 C 368.898438 287.554688 287.554688 368.898438 187.398438 368.898438 Z M 187.398438 15.839844 C 92.75 15.839844 15.839844 92.75 15.839844 187.398438 C 15.839844 282.046875 92.75 358.960938 187.398438 358.960938 C 282.046875 358.960938 358.960938 282.046875 358.960938 187.398438 C 358.960938 92.75 282.046875 15.839844 187.398438 15.839844 Z M 187.398438 15.839844 " fill-opacity="1" fill-rule="nonzero"/></g></svg>