<svg xmlns="http://www.w3.org/2000/svg" xmlns:xlink="http://www.w3.org/1999/xlink" width="500" zoomAndPan="magnify" viewBox="0 0 375 374.999991" height="500" preserveAspectRatio="xMidYMid meet" version="1.0"><defs><clipPath id="ee2e5996d3"><path d="M 177 3.203125 L 198 3.203125 L 198 63 L 177 63 Z M 177 3.203125 " clip-rule="nonzero"/></clipPath><clipPath id="12b8e6f50f"><path d="M 177 312 L 198 312 L 198 371.453125 L 177 371.453125 Z M 177 312 " clip-rule="nonzero"/></clipPath><clipPath id="d5dbd795d9"><path d="M 3.203125 177 L 63 177 L 63 198 L 3.203125 198 Z M 3.203125 177 " clip-rule="nonzero"/></clipPath><clipPath id="610b2a55ec"><path d="M 312 177 L 371.453125 177 L 371.453125 198 L 312 198 Z M 312 177 " clip-rule="nonzero"/></clipPath></defs><path fill="#ffe9c8" d="M 187.328125 90.179688 C 133.921875 90.179688 90.179688 133.921875 90.179688 187.328125 C 90.179688 240.734375 133.921875 284.476562 187.328125 284.476562 C 240.734375 284.476562 284.476562 240.734375 284.476562 187.328125 C 284.476562 133.921875 240.734375 90.179688 187.328125 90.179688 Z M 187.328125 264.128906 C 145.109375 264.128906 110.523438 229.542969 110.523438 187.328125 C 110.523438 145.109375 145.109375 110.523438 187.328125 110.523438 C 229.542969 110.523438 264.128906 145.109375 264.128906 187.328125 C 264.128906 229.542969 229.542969 264.128906 187.328125 264.128906 Z M 187.328125 264.128906 " fill-opacity="1" fill-rule="nonzero"/><g clip-path="url(#ee2e5996d3)"><path fill="#ffe9c8" d="M 187.328125 62.203125 C 192.921875 62.203125 197.5 57.625 197.5 52.03125 L 197.5 13.375 C 197.5 7.78125 192.921875 3.203125 187.328125 3.203125 C 181.730469 3.203125 177.152344 7.78125 177.152344 13.375 L 177.152344 52.03125 C 177.152344 57.625 181.730469 62.203125 187.328125 62.203125 Z M 187.328125 62.203125 " fill-opacity="1" fill-rule="nonzero"/></g><g clip-path="url(#12b8e6f50f)"><path fill="#ffe9c8" d="M 187.328125 312.449219 C 181.730469 312.449219 177.152344 317.027344 177.152344 322.625 L 177.152344 361.277344 C 177.152344 366.875 181.730469 371.453125 187.328125 371.453125 C 192.921875 371.453125 197.5 366.875 197.5 361.277344 L 197.5 322.625 C 197.5 317.027344 192.921875 312.449219 187.328125 312.449219 Z M 187.328125 312.449219 " fill-opacity="1" fill-rule="nonzero"/></g><path fill="#ffe9c8" d="M 282.949219 101.875 C 285.492188 101.875 288.035156 100.859375 290.070312 98.824219 L 317.535156 71.359375 C 321.605469 67.289062 321.605469 61.1875 317.535156 57.117188 C 313.46875 53.046875 307.363281 53.046875 303.296875 57.117188 L 275.828125 84.582031 C 271.761719 88.652344 271.761719 94.753906 275.828125 98.824219 C 277.863281 100.859375 280.40625 101.875 282.949219 101.875 Z M 282.949219 101.875 " fill-opacity="1" fill-rule="nonzero"/><path fill="#ffe9c8" d="M 84.582031 275.828125 L 57.117188 303.296875 C 53.046875 307.363281 53.046875 313.46875 57.117188 317.535156 C 59.152344 319.570312 61.695312 320.589844 64.238281 320.589844 C 66.78125 320.589844 69.324219 319.570312 71.359375 317.535156 L 98.824219 290.070312 C 102.894531 286 102.894531 279.898438 98.824219 275.828125 C 94.753906 271.761719 88.652344 271.761719 84.582031 275.828125 Z M 84.582031 275.828125 " fill-opacity="1" fill-rule="nonzero"/><g clip-path="url(#d5dbd795d9)"><path fill="#ffe9c8" d="M 62.203125 187.328125 C 62.203125 181.730469 57.625 177.152344 52.03125 177.152344 L 13.375 177.152344 C 7.78125 177.152344 3.203125 181.730469 3.203125 187.328125 C 3.203125 192.921875 7.78125 197.5 13.375 197.5 L 52.03125 197.5 C 57.625 197.5 62.203125 192.921875 62.203125 187.328125 Z M 62.203125 187.328125 " fill-opacity="1" fill-rule="nonzero"/></g><g clip-path="url(#610b2a55ec)"><path fill="#ffe9c8" d="M 361.277344 177.152344 L 322.625 177.152344 C 317.027344 177.152344 312.449219 181.730469 312.449219 187.328125 C 312.449219 192.921875 317.027344 197.5 322.625 197.5 L 361.277344 197.5 C 366.875 197.5 371.453125 192.921875 371.453125 187.328125 C 371.453125 181.730469 366.875 177.152344 361.277344 177.152344 Z M 361.277344 177.152344 " fill-opacity="1" fill-rule="nonzero"/></g><path fill="#ffe9c8" d="M 84.582031 98.824219 C 86.617188 100.859375 89.160156 101.875 91.703125 101.875 C 94.246094 101.875 96.789062 100.859375 98.824219 98.824219 C 102.894531 94.753906 102.894531 88.652344 98.824219 84.582031 L 71.359375 57.117188 C 67.289062 53.046875 61.1875 53.046875 57.117188 57.117188 C 53.046875 61.1875 53.046875 67.289062 57.117188 71.359375 Z M 84.582031 98.824219 " fill-opacity="1" fill-rule="nonzero"/><path fill="#ffe9c8" d="M 290.070312 275.828125 C 286 271.761719 279.898438 271.761719 275.828125 275.828125 C 271.761719 279.898438 271.761719 286 275.828125 290.070312 L 303.296875 317.535156 C 305.328125 319.570312 307.871094 320.589844 310.414062 320.589844 C 312.960938 320.589844 315.503906 319.570312 317.535156 317.535156 C 321.605469 313.46875 321.605469 307.363281 317.535156 303.296875 Z M 290.070312 275.828125 " fill-opacity="1" fill-rule="nonzero"/></svg>