<svg xmlns="http://www.w3.org/2000/svg" xmlns:xlink="http://www.w3.org/1999/xlink" width="500" zoomAndPan="magnify" viewBox="0 0 375 374.999991" height="500" preserveAspectRatio="xMidYMid meet" version="1.0"><defs><clipPath id="3c2a1b4e45"><path d="M 11.777344 96 L 220 96 L 220 347 L 11.777344 347 Z M 11.777344 96 " clip-rule="nonzero"/></clipPath><clipPath id="d7b6fa3463"><path d="M 121 159 L 363.527344 159 L 363.527344 367 L 121 367 Z M 121 159 " clip-rule="nonzero"/></clipPath></defs><g clip-path="url(#3c2a1b4e45)"><path fill="#0a162e" d="M 53.597656 288.976562 L 86.820312 308.164062 L 69.394531 318.222656 L 60.566406 313.117188 C 72.570312 306.230469 70.015625 307.703125 70.015625 307.703125 L 45.621094 293.617188 L 36.171875 299.035156 L 11.777344 313.117188 L 69.394531 346.390625 L 111.214844 322.25 L 135.609375 308.164062 L 77.992188 274.894531 L 77.992188 148.460938 L 95.648438 138.246094 L 95.648438 264.757812 L 153.265625 298.027344 L 177.660156 283.945312 L 219.480469 259.804688 L 161.863281 226.53125 L 131.195312 244.253906 L 155.589844 258.335938 L 161.863281 254.699219 L 170.691406 259.804688 L 153.265625 269.863281 L 120.042969 250.675781 L 120.042969 96 L 53.519531 134.378906 L 53.519531 288.976562 Z M 53.597656 288.976562 " fill-opacity="1" fill-rule="evenodd"/></g><g clip-path="url(#d7b6fa3463)"><path fill="#0a162e" d="M 321.707031 288.976562 L 321.707031 250.597656 L 339.132812 260.65625 L 339.132812 270.792969 C 327.128906 263.90625 329.683594 265.375 329.683594 265.375 L 329.683594 293.542969 L 339.132812 298.957031 L 363.527344 313.039062 L 363.527344 246.496094 L 321.707031 222.355469 L 297.3125 208.273438 L 297.3125 274.816406 L 187.730469 338.03125 L 170.070312 327.820312 L 187.730469 317.605469 L 279.65625 264.601562 L 279.65625 198.058594 L 255.261719 183.976562 L 213.441406 159.835938 L 213.441406 226.378906 L 244.109375 244.097656 L 244.109375 215.933594 L 237.835938 212.296875 L 237.835938 202.160156 L 255.261719 212.21875 L 255.261719 250.597656 L 187.730469 289.519531 L 163.335938 303.601562 L 145.675781 313.8125 L 121.28125 327.898438 L 187.804688 366.277344 L 321.863281 288.976562 Z M 321.707031 288.976562 " fill-opacity="1" fill-rule="evenodd"/></g><path fill="#ff8000" d="M 130.035156 41.988281 L 154.429688 27.90625 L 163.257812 22.800781 L 163.335938 22.722656 L 164.804688 21.871094 L 164.960938 21.792969 L 168.910156 19.472656 L 170.148438 18.777344 L 171.3125 18.078125 L 172.472656 17.460938 L 173.558594 16.84375 L 174.5625 16.222656 L 175.570312 15.679688 L 176.5 15.140625 L 177.351562 14.597656 L 178.203125 14.132812 L 178.976562 13.667969 L 179.753906 13.207031 L 180.449219 12.820312 L 181.070312 12.429688 L 181.6875 12.042969 L 182.773438 11.425781 L 183.238281 11.117188 L 183.703125 10.882812 L 184.167969 10.652344 L 184.554688 10.417969 L 184.941406 10.1875 L 185.25 10.03125 L 185.558594 9.878906 L 185.871094 9.722656 L 186.101562 9.570312 L 186.335938 9.414062 L 186.566406 9.257812 L 186.722656 9.183594 L 186.878906 9.105469 L 187.03125 9.027344 L 187.1875 8.949219 L 187.265625 8.871094 L 187.339844 8.792969 L 187.417969 8.71875 L 187.574219 8.71875 L 187.574219 47.714844 L 163.179688 61.796875 C 163.179688 61.796875 163.179688 64.738281 163.179688 50.964844 L 154.351562 56.070312 L 154.351562 76.191406 L 187.574219 57 L 321.628906 134.300781 L 321.628906 210.980469 L 297.234375 196.898438 L 279.578125 186.683594 L 255.183594 172.601562 L 213.984375 148.847656 L 187.652344 133.679688 L 178.824219 138.789062 L 161.242188 148.925781 L 154.429688 152.871094 L 154.429688 172.988281 L 163.257812 167.882812 L 163.257812 160.683594 L 183.625 148.925781 L 187.652344 146.601562 L 187.652344 182.195312 L 154.429688 201.386719 L 154.351562 201.464844 L 153.421875 202.003906 L 151.5625 203.089844 L 150.632812 203.628906 L 148.773438 204.714844 L 147.84375 205.253906 L 146.914062 205.796875 L 145.988281 206.335938 L 144.128906 207.421875 L 143.199219 207.960938 L 141.339844 209.046875 L 140.410156 209.585938 L 138.550781 210.671875 L 137.621094 211.210938 L 136.691406 211.753906 L 135.765625 212.296875 L 134.835938 212.835938 L 132.976562 213.921875 L 132.046875 214.460938 L 130.1875 215.546875 L 129.257812 216.085938 L 129.257812 140.414062 L 153.652344 126.332031 L 186.875 107.140625 L 244.496094 140.414062 L 262.074219 150.550781 L 278.726562 160.144531 L 296.382812 170.359375 L 296.382812 149.929688 L 186.800781 86.714844 L 129.179688 119.984375 L 129.179688 43.539062 Z M 130.035156 41.988281 " fill-opacity="1" fill-rule="evenodd"/></svg>